<svg width="21" height="20" viewBox="0 0 21 20" fill="none" xmlns="http://www.w3.org/2000/svg">
<path fill-rule="evenodd" clip-rule="evenodd" d="M20.6619 20H16.6619V13.001C16.6619 11.081 15.8149 10.0098 14.2959 10.0098C12.6429 10.0098 11.6619 11.126 11.6619 13.001V20H7.66187V7H11.6619V8.46191C11.6619 8.46191 12.9169 6.25977 15.7449 6.25977C18.5739 6.25977 20.6619 7.98611 20.6619 11.5581V20ZM3.10387 4.9209C1.75487 4.9209 0.661865 3.81896 0.661865 2.45996C0.661865 1.10196 1.75487 0 3.10387 0C4.45187 0 5.54486 1.10196 5.54486 2.45996C5.54586 3.81896 4.45187 4.9209 3.10387 4.9209ZM0.661865 20H5.66187V7H0.661865V20Z" fill="white"/>
</svg>
