<svg width="30" height="30" viewBox="0 0 30 30" fill="none" xmlns="http://www.w3.org/2000/svg">
<g clip-path="url(#clip0_2588_1242)">
<path d="M15 0.625V3.025" stroke="white" stroke-width="2" stroke-miterlimit="10"/>
<path d="M15 26.9751V29.3751" stroke="white" stroke-width="2" stroke-miterlimit="10"/>
<path d="M29.375 15H26.975" stroke="white" stroke-width="2" stroke-miterlimit="10"/>
<path d="M3.025 15H0.625" stroke="white" stroke-width="2" stroke-miterlimit="10"/>
<path d="M15 0.625V3.025" stroke="white" stroke-width="2" stroke-miterlimit="10"/>
<path d="M15 26.9751V29.3751" stroke="white" stroke-width="2" stroke-miterlimit="10"/>
<path d="M29.375 15H26.975" stroke="white" stroke-width="2" stroke-miterlimit="10"/>
<path d="M3.025 15H0.625" stroke="white" stroke-width="2" stroke-miterlimit="10"/>
<path d="M25.1625 4.8374L23.475 6.5249" stroke="white" stroke-width="2" stroke-miterlimit="10"/>
<path d="M6.525 23.4751L4.8375 25.1626" stroke="white" stroke-width="2" stroke-miterlimit="10"/>
<path d="M25.1625 25.1626L23.475 23.4751" stroke="white" stroke-width="2" stroke-miterlimit="10"/>
<path d="M6.525 6.5249L4.8375 4.8374" stroke="white" stroke-width="2" stroke-miterlimit="10"/>
<path d="M25.1625 4.8374L23.475 6.5249" stroke="white" stroke-width="2" stroke-miterlimit="10"/>
<path d="M6.525 23.4751L4.8375 25.1626" stroke="white" stroke-width="2" stroke-miterlimit="10"/>
<path d="M25.1625 25.1626L23.475 23.4751" stroke="white" stroke-width="2" stroke-miterlimit="10"/>
<path d="M6.525 6.5249L4.8375 4.8374" stroke="white" stroke-width="2" stroke-miterlimit="10"/>
<path d="M15 23.3873C19.6323 23.3873 23.3875 19.6321 23.3875 14.9998C23.3875 10.3675 19.6323 6.6123 15 6.6123C10.3677 6.6123 6.6125 10.3675 6.6125 14.9998C6.6125 19.6321 10.3677 23.3873 15 23.3873Z" stroke="white" stroke-width="2" stroke-miterlimit="10"/>
</g>
<defs>
<clipPath id="clip0_2588_1242">
<rect width="30" height="30" fill="white"/>
</clipPath>
</defs>
</svg>
