<svg width="21" height="18" viewBox="0 0 21 18" fill="none" xmlns="http://www.w3.org/2000/svg">
<path d="M19.3834 0.14513L1.5917 7.49884C0.391037 7.96575 0.391037 8.78283 1.3734 9.01628L5.8486 10.5337L7.59502 16.1365C7.81332 16.7202 7.70417 16.9536 8.24993 16.9536C8.68653 16.9536 8.90483 16.7202 9.12314 16.4867C9.23229 16.37 10.2146 15.3195 11.3062 14.1522L15.8905 17.7707C16.7637 18.2376 17.3095 18.0042 17.5278 16.9536L20.584 1.66256C20.9115 0.378581 20.1474 -0.321773 19.3834 0.14513ZM17.0912 3.6469L8.57738 11.9344L8.24993 15.7864L6.50351 10.1835L16.5454 3.41345C16.982 3.06327 17.4186 3.29672 17.0912 3.6469Z" fill="white"/>
</svg>
